<svg xmlns="http://www.w3.org/2000/svg" viewBox="0 0 64 64" role="img" aria-label="FunKids">
  <rect width="64" height="64" rx="16" fill="#fffdfa"/>
  <circle cx="46" cy="18" r="6" fill="#f8c85f"/>
  <circle cx="18" cy="40" r="7" fill="#f8c85f"/>
  <path
    d="M30 10c-4.8 0-8.3 2.6-10 6.4C18.3 12.6 14.8 10 10 10 4.4 10 1 14.8 1 20.3c0 6.9 5.3 12.3 14.4 19.4C22 44.7 26.6 48 26.6 48S17 38.5 11.8 31.5C8.3 26.8 7 23.9 7 20.6 7 16.6 9.6 14 12.9 14c3.4 0 6.1 2.4 6.9 6.1.2.8.9 1.4 1.8 1.4s1.6-.6 1.8-1.4c.8-3.7 3.5-6.1 6.9-6.1 4.1 0 7.7 3.5 7.7 8.7 0 2.1-.4 4-1.6 6.6 3.8-3.6 5.9-7.6 5.9-11.8C42.3 13.7 36.8 10 30 10Z"
    fill="#e85f6b"
  />
  <path
    d="M45 37c4.1 0 7.9 1.8 10.9 4.9 2.6 2.8 4.1 6.5 4.1 10.4 0 1.1-.1 2.1-.4 3.1-2.2-4.2-6-6.6-11.3-7.2-5.3-.5-10.1-2.4-13.8-5.4 2.2-3.7 5.8-5.8 10.5-5.8Z"
    fill="#e85f6b"
    opacity=".96"
  />
  <path
    d="M35 43.5c2.8 2.3 6.5 3.7 11.1 4.2 6 .7 10.1 3.4 12.6 8.2"
    fill="none"
    stroke="#97649a"
    stroke-linecap="round"
    stroke-width="2.8"
  />
</svg>
