<svg xmlns="http://www.w3.org/2000/svg" viewBox="0 0 340 96" role="img" aria-label="FunKids Diversion y Sonrisas">
  <g transform="translate(8 10)">
    <path
      d="M33 18c-5.5 0-9.7 3.1-11.8 7.7-2.1-4.6-6.3-7.7-11.8-7.7C3.9 18 0 22.5 0 28.2c0 6.7 5 11.8 13 18.1 3.4 2.7 6.4 4.9 8.5 6.4 1.7-1.4 4.1-3.2 6.9-5.4l4.2 3.5c-4.8 4-8.4 6.8-9.5 7.6a2.7 2.7 0 0 1-3.2 0c-1-.7-4.9-3.7-10-7.8C2.8 44.1-4 37.9-4 28.2-4 19.5 2.5 12 11 12c4.5 0 8 1.8 10.4 4.8 2.5-3 6-4.8 10.4-4.8 8.5 0 15 7.4 15 16.2 0 4.4-1.6 8.4-4.7 12l-4.2-3.5c2.4-2.8 3.5-5.5 3.5-8.5C41.4 21.8 37.9 18 33 18Z"
      fill="#e85f6b"
    />
    <path
      d="M46.7 44.9c4.9 0 9.3 2 12.8 5.6 3.1 3.2 4.8 7.2 4.8 11.5 0 1.3-.1 2.3-.4 3.3-2.6-4.6-7.1-7.2-13.5-7.8-5.6-.6-10.4-2.6-14.3-5.8 2.4-4.4 6.3-6.8 10.6-6.8Z"
      fill="#97649a"
    />
    <path
      d="M35.2 51.2c2.9 2.3 6.7 3.8 11.2 4.3 6.2.7 10.6 3.5 13.4 8.4"
      fill="none"
      stroke="#e85f6b"
      stroke-linecap="round"
      stroke-width="3.2"
    />
    <circle cx="45" cy="20" r="5.6" fill="#f8c85f"/>
  </g>
  <g transform="translate(86 18)">
    <text x="0" y="27" font-family="Marker Felt, Bradley Hand, Trebuchet MS, sans-serif" font-size="34" font-weight="700" fill="#5ba6d8">Fun</text>
    <text x="63" y="27" font-family="Marker Felt, Bradley Hand, Trebuchet MS, sans-serif" font-size="34" font-weight="700" fill="#ea93b8">Kids</text>
    <text x="0" y="50" font-family="Avenir Next, Segoe UI, sans-serif" font-size="16" letter-spacing="1.4" fill="#3f95cc">DIVERSION Y SONRISAS</text>
  </g>
</svg>
